HIERARCHY
ROOT Hips
{
  OFFSET -35.4901 99.2528 17.4586
  CHANNELS 6 Xposition Yposition Zposition Zrotation Xrotation Yrotation
  JOINT LeftUpLeg
  {
    OFFSET 8.64259 1.95398 -2.38835
    CHANNELS 3 Zrotation Xrotation Yrotation
    JOINT LeftLeg
    {
      OFFSET 43.7702 0 0
      CHANNELS 3 Zrotation Xrotation Yrotation
      JOINT LeftFoot
      {
        OFFSET 40.6238 0 0
        CHANNELS 3 Zrotation Xrotation Yrotation
        JOINT LeftToeBase
        {
          OFFSET 12.7242 0 0
          CHANNELS 3 Zrotation Xrotation Yrotation
          End Site
          {
            OFFSET 0 0 0
          }
        }
      }
    }
  }
  JOINT RightUpLeg
  {
    OFFSET -8.2249 1.95398 -2.59336
    CHANNELS 3 Zrotation Xrotation Yrotation
    JOINT RightLeg
    {
      OFFSET 43.5653 0 0
      CHANNELS 3 Zrotation Xrotation Yrotation
      JOINT RightFoot
      {
        OFFSET 40.6238 0 0
        CHANNELS 3 Zrotation Xrotation Yrotation
        JOINT RightToeBase
        {
          OFFSET 12.7242 0 0
          CHANNELS 3 Zrotation Xrotation Yrotation
          End Site
          {
            OFFSET 0 0 0
          }
        }
      }
    }
  }
  JOINT Spine
  {
    OFFSET 0.165834 0.87714 6.61349
    CHANNELS 3 Zrotation Xrotation Yrotation
    JOINT Spine1
    {
      OFFSET 7.38963 1.71661e-005 0
      CHANNELS 3 Zrotation Xrotation Yrotation
      JOINT Spine2
      {
        OFFSET 11.9445 1.14441e-005 0
        CHANNELS 3 Zrotation Xrotation Yrotation
        JOINT Spine3
        {
          OFFSET 14.7254 4.19617e-005 0
          CHANNELS 3 Zrotation Xrotation Yrotation
          JOINT Spine4
          {
            OFFSET 10.9679 0 0
            CHANNELS 3 Zrotation Xrotation Yrotation
            JOINT RightShoulder
            {
              OFFSET 2.46616 -1.6653 3.69651
              CHANNELS 3 Zrotation Xrotation Yrotation
              JOINT RightArm
              {
                OFFSET 13.0012 0 0
                CHANNELS 3 Zrotation Xrotation Yrotation
                JOINT RightForeArm
                {
                  OFFSET 28.7848 1.52588e-005 0
                  CHANNELS 3 Zrotation Xrotation Yrotation
                  JOINT RightHand
                  {
                    OFFSET 26.5688 1.52588e-005 0
                    CHANNELS 3 Zrotation Xrotation Yrotation
                    End Site
                    {
                      OFFSET 0 0 0
                    }
                  }
                }
              }
            }
            JOINT LeftShoulder
            {
              OFFSET 2.38034 -1.29275 -3.7523
              CHANNELS 3 Zrotation Xrotation Yrotation
              JOINT LeftArm
              {
                OFFSET 16.3182 6.10351e-005 0
                CHANNELS 3 Zrotation Xrotation Yrotation
                JOINT LeftForeArm
                {
                  OFFSET 27.0901 0 0
                  CHANNELS 3 Zrotation Xrotation Yrotation
                  JOINT LeftHand
                  {
                    OFFSET 24.5451 1.52588e-005 0
                    CHANNELS 3 Zrotation Xrotation Yrotation
                    End Site
                    {
                      OFFSET 0 0 0
                    }
                  }
                }
              }
            }
            JOINT Neck
            {
              OFFSET 5.0226 -0.0266342 0
              CHANNELS 3 Zrotation Xrotation Yrotation
              JOINT Head
              {
                OFFSET 6.69364 2.86102e-005 0
                CHANNELS 3 Zrotation Xrotation Yrotation
                End Site
                {
                  OFFSET 0 0 0
                }
              }
            }
          }
        }
      }
    }
  }
}
MOTION
Frames:	6
Frame Time:	0.0416667
20.6626 96.6905 -13.0111 153.086 -81.5374 153.369 -179.622 16.7642 89.1157 -8.4264 -21.4928 -2.80978 62.4606 2.90464 -1.66351 17.8491 -0.674113 1.80113 169.775 -8.2285 87.7517 -21.2479 -11.1562 -1.03574 79.9591 -7.85737 -1.71863 26.7453 -1.08348 3.01361 1.53428 8.19998 -90.1059 10.483 3.00762 -0.476975 -1.18459 2.98372 -0.609 -23.7474 3.01179 0.449833 -3.73478 3.0118 0.449838 88.7791 -27.0074 -110.475 27.4992 -7.03697 -17.0574 -4.20596 -31.9741 -23.3949 -25.4244 -0.0172708 -8.99289 -81.4802 -54.9422 91.8862 -28.8172 9.37467 7.77538 8.16462 16.6343 -17.0937 -5.38088 0.00454645 -7.96322 -4.47571 -2.92919 6.85211 -1.90226 -3.60497 -5.14698 
22.4307 96.037 -5.7608 150.592 -80.5947 151.291 -179.248 14.6904 88.0371 -10.0883 -24.9281 -4.41243 58.4734 1.66245 0.382054 16.0768 -0.318863 1.42319 167.969 -13.7109 85.7512 -20.3361 -12.4307 -0.707311 79.024 -8.2493 -2.41948 32.8287 -1.41477 3.6103 1.62063 8.079 -90.1188 10.7264 3.17261 -0.527784 -0.940816 3.1463 -0.667052 -23.5068 3.18441 0.451111 -3.49419 3.18439 0.451095 88.2271 -27.9192 -111.181 29.6068 -6.18769 -17.5428 -2.38148 -30.0002 -22.311 -26.9061 0.0703552 -8.84971 -80.3381 -54.7279 93.5141 -29.7543 7.14273 8.53754 8.39835 14.5816 -17.0209 -4.77491 -0.0249264 -7.4977 -5.14904 -1.41574 6.64509 -2.59902 -2.02126 -3.45778 
24.7075 96.1994 1.88948 143.98 -79.6954 144.651 -177.864 16.6128 86.4169 -22.0211 -18.1622 -5.18887 63.9908 1.64625 1.555 2.45172 0.978929 0.745906 165.869 -14.2499 82.7529 -26.2168 -14.9009 -0.444142 70.5998 -4.86297 -0.924036 45.3983 -1.37242 2.62014 1.61745 7.87807 -89.9967 11.126 3.22105 -0.306226 -0.541005 3.20444 -0.447852 -23.1074 3.164 0.67699 -3.09475 3.164 0.676986 87.283 -29.9591 -112.116 33.5189 -6.59589 -16.1362 -1.01772 -30.0634 -18.7751 -24.5434 0.206611 -9.97968 -79.6857 -53.5398 94.4103 -30.2734 4.93062 7.26974 8.7766 13.5023 -16.3983 -3.54279 -0.0638882 -6.90745 -4.89585 0.497184 5.66749 -3.9655 -0.0205781 -1.99757 
27.6177 96.3336 8.29693 141.729 -77.4061 140.713 -177.717 13.3398 83.4471 -27.7603 -17.0892 -5.97489 70.553 4.08188 1.27883 2.78738 0.632696 1.10521 166.329 -5.98375 78.5104 -46.4489 -20.9748 -2.28411 58.57 0.063365 0.162645 39.4841 -2.17998 6.58789 1.57791 7.97605 -89.8033 10.9243 3.23256 0.0867295 -0.742607 3.23324 -0.0557875 -23.3076 3.0569 1.05515 -3.29491 3.05689 1.05515 86.7841 -30.3422 -112.909 37.4714 -8.22273 -13.2214 1.29596 -32.2612 -16.2923 -23.6675 0.226452 -10.7118 -79.8885 -52.9343 94.0924 -28.9326 4.35957 2.79884 9.12561 13.1445 -16.1572 -2.59588 -0.0813886 -7.24377 -4.84012 2.51792 6.546 -3.70018 1.88315 -1.07942 
30.316 96.0234 13.2782 133.962 -74.0204 131.828 -178.134 10.0866 81.2861 -31.1718 -14.0442 -6.43293 74.9584 5.31782 2.08764 4.55302 1.21088 0.363913 172.865 3.6291 78.6509 -64.5132 -23.7164 -4.77036 59.0481 -0.165575 1.07413 26.8255 -1.3382 3.69099 1.37472 8.13146 -89.7231 10.609 2.86537 0.291272 -1.05878 2.8754 0.164772 -23.6161 2.64526 1.13955 -3.6035 2.64526 1.13955 87.2928 -30.3817 -111.906 40.596 -8.64969 -10.1492 0.506056 -33.8031 -16.9503 -22.389 0.167618 -10.9875 -80.4777 -53.3855 93.2495 -24.7777 3.85779 -3.44532 11.2623 15.8019 -18.7987 -2.04254 -0.102613 -8.25797 -5.45562 4.36854 8.61948 -3.23378 3.56091 -0.460803 
32.4612 96.2464 17.2589 119.219 -67.6879 118.193 -178.567 7.45501 81.1341 -31.6134 -6.50934 -4.81453 77.3347 6.51239 2.83864 4.81331 1.4562 0.0787521 179.212 10.8371 82.0726 -67.6627 -14.9723 -5.60465 65.2243 -3.37173 -2.56731 21.8564 -2.38325 6.28796 0.92016 8.14012 -89.9257 10.5949 1.86689 -0.0207352 -1.0747 1.86416 -0.102914 -23.62 1.78678 0.541489 -3.60733 1.78678 0.541477 88.5215 -30.6268 -109.413 42.2985 -7.08415 -5.9819 0.777725 -32.3146 -16.2434 -23.3106 0.213938 -10.7182 -81.0037 -54.5557 92.5484 -19.0873 3.72316 -11.361 12.4525 17.3345 -20.4567 -1.96082 -0.106796 -8.89716 -6.72908 5.8675 8.50892 -3.2818 5.13337 2.58667 
